<?xml version="1.0" encoding="UTF-8" standalone="no"?>
<svg
   width="94.25"
   height="102.3755"
   viewBox="0 0 94.25 102.3755"
   fill="none"
   version="1.1"
   id="svg7"
   sodipodi:docname="canvas.svg"
   inkscape:version="1.3.2 (091e20e, 2023-11-25, custom)"
   xmlns:inkscape="http://www.inkscape.org/namespaces/inkscape"
   xmlns:sodipodi="http://sodipodi.sourceforge.net/DTD/sodipodi-0.dtd"
   xmlns="http://www.w3.org/2000/svg"
   xmlns:svg="http://www.w3.org/2000/svg">
  <defs
     id="defs7" />
  <sodipodi:namedview
     id="namedview7"
     pagecolor="#ffffff"
     bordercolor="#000000"
     borderopacity="0.25"
     inkscape:showpageshadow="2"
     inkscape:pageopacity="0.0"
     inkscape:pagecheckerboard="0"
     inkscape:deskcolor="#d1d1d1"
     inkscape:zoom="11.509615"
     inkscape:cx="47.091061"
     inkscape:cy="51.218045"
     inkscape:window-width="2560"
     inkscape:window-height="1411"
     inkscape:window-x="-9"
     inkscape:window-y="-9"
     inkscape:window-maximized="1"
     inkscape:current-layer="svg7" />
  <path
     d="M 58.5,13 H 35.75 c -0.431,0 -0.8443,-0.1712 -1.149,-0.476 -0.3048,-0.3047 -0.476,-0.718 -0.476,-1.149 v -6.5 c 0,-1.29293 0.5136,-2.53291 1.4279,-3.44715 C 36.4671,0.51361 37.7071,0 39,0 h 16.25 c 1.2929,0 2.5329,0.51361 3.4471,1.42785 0.9143,0.91424 1.4279,2.15422 1.4279,3.44715 v 6.5 c 0,0.431 -0.1712,0.8443 -0.476,1.149 C 59.3443,12.8288 58.931,13 58.5,13 Z M 37.375,9.75 h 19.5 V 4.875 C 56.875,4.44402 56.7038,4.0307 56.399,3.72595 56.0943,3.4212 55.681,3.25 55.25,3.25 H 39 c -0.431,0 -0.8443,0.1712 -1.149,0.47595 C 37.5462,4.0307 37.375,4.44402 37.375,4.875 Z"
     fill="#afaeb3"
     id="path1" />
  <path
     d="m 70.1025,86.125 9.3925,16.2505 h 7.5075 L 77.61,86.125 l -3.7375,-6.5 -15.795,-27.3325 -5.6225,3.25 13.91,24.0825 H 27.95 l 13.91,-24.0825 -5.6225,-3.25 -15.795,27.3325 -3.7375,6.5 -9.3925,16.2505 H 14.82 L 24.2125,86.125 Z"
     fill="#bc9a7e"
     id="path2" />
  <path
     d="M 9.75,8.125 H 84.5 c 1.7239,0 3.3772,0.68482 4.5962,1.9038 C 90.3152,11.2478 91,12.9011 91,14.625 v 45.5 H 3.25 v -45.5 c 0,-1.7239 0.68482,-3.3772 1.9038,-4.5962 C 6.3728,8.80982 8.0261,8.125 9.75,8.125 Z"
     fill="#e0e0e2"
     id="path3" />
  <path
     d="M 91,60.125 H 3.25 c -1.79493,0 -3.25,1.4551 -3.25,3.25 0,1.7949 1.45507,3.25 3.25,3.25 H 91 c 1.7949,0 3.25,-1.4551 3.25,-3.25 0,-1.7949 -1.4551,-3.25 -3.25,-3.25 z"
     fill="#afaeb3"
     id="path4" />
  <path
     d="m 55.25,30.875 c 3.5899,0 6.5,-2.9101 6.5,-6.5 0,-3.5899 -2.9101,-6.5 -6.5,-6.5 -3.5899,0 -6.5,2.9101 -6.5,6.5 0,3.5899 2.9101,6.5 6.5,6.5 z"
     fill="#f8a839"
     id="path5" />
  <path
     d="M 91,60.125 H 43.6703 l 24.401,-24.401 c 0.5433,-0.5439 1.1885,-0.9754 1.8987,-1.2698 0.7101,-0.2944 1.4714,-0.4459 2.2402,-0.4459 0.7687,0 1.53,0.1515 2.2402,0.4459 0.7101,0.2944 1.3553,0.7259 1.8986,1.2698 L 91,50.375 Z"
     fill="#3eb57b"
     id="path6" />
  <path
     d="M 65.7443,60.125 H 3.25 V 51.051 L 26.6143,27.6867 c 0.8874,-0.8873 2.0909,-1.3858 3.3458,-1.3858 1.255,0 2.4585,0.4985 3.3459,1.3858 z"
     fill="#55bb8c"
     id="path7" />
</svg>
